<svg id="Layer_1" data-name="Layer 1" xmlns="http://www.w3.org/2000/svg" viewBox="0 0 700 133.75"><defs><style>.cls-1{fill:#ffce07;}</style></defs><path d="M683.7,29.41a55.7,55.7,0,0,0-78.06,0q-2.08,2.06-3.91,4.24a43,43,0,0,0-7.46-11.37c-6.86-7.68-16.22-11.57-27.86-11.57-11.16,0-24.18,3.53-39.8,10.8l-5.12,2.39-1.64,65.21-4.16-74.86L470.06,10.5l-8.33,20.43L454.14,8.35,411,14.93l-1.29,32L394.39,11.2l-35.17,2.87L341.9,59.86l-8.08-44.52-35.9,12.14.18-2L256.1,17l-1.52,11L251.33,8l-8.46.79c-35.39,3.29-55.87,14.53-61,33.44A55.67,55.67,0,0,0,172,29.41a53.86,53.86,0,0,0-39-16A53.94,53.94,0,0,0,94,29.41c-.46.46-.91.91-1.35,1.38Q85.53,23.56,73.1,18.54C59.55,13.06,41.29,9.41,17.26,7.38L8,6.59,0,125.06l48.34-7.76,16.29,23,31.09-31.47a53.78,53.78,0,0,0,37.3,14.3,53.87,53.87,0,0,0,39-16,54.07,54.07,0,0,0,12.53-18.59l13.83,42.44,6.85-.24c26.78-.92,45-6.42,55.21-16.74l28.19,13.82,3-34.4h.05l.35,29.91,50.57-5.84L368.52,127l5.42-17.84,7.27-1.58,6.61,20.62,19.11-10.45-.34,8.45,48.57-11.37-.37-7.92,6.44,7.48,9.6-11.89.68,19.43,47.63-4.61-.13,5.1,8.64.64c7.33.56,14.23.84,20.49.84,28.28,0,47.06-5.63,57-17.15l.5.5a55.69,55.69,0,0,0,78.07,0A52.83,52.83,0,0,0,700,68.31,52.77,52.77,0,0,0,683.7,29.41Zm-548,41.71a8.4,8.4,0,0,1-11.53,0,7,7,0,0,1,0-10.23,8.43,8.43,0,0,1,11.52,0,6.94,6.94,0,0,1,0,10.24Zm511.68,0a7.58,7.58,0,0,1-5.74,2.29,7.66,7.66,0,0,1-5.79-2.29,7,7,0,0,1,0-10.23,8.43,8.43,0,0,1,11.52,0,6.94,6.94,0,0,1,0,10.24Z" transform="translate(0 -6.59)"/><path class="cls-1" d="M165.64,35.9A44.87,44.87,0,0,0,133,22.55,44.94,44.94,0,0,0,100.34,35.9,46.61,46.61,0,0,0,92,47q-6.8-24.69-75.46-30.51L9.86,114.26l34.44-5.54L43.05,94l22.74,32.2,25.84-26.15L71.34,87.49q10.6-4,16-11.81a43.58,43.58,0,0,0,13,25A45,45,0,0,0,133,114.08a44.88,44.88,0,0,0,32.62-13.36,43.81,43.81,0,0,0,13.58-32.41A43.83,43.83,0,0,0,165.64,35.9Zm-124.5,24L40.6,47.76q24,3.81,24.05,8.1Q64.65,59.91,41.14,59.91ZM142.08,77.62a17.5,17.5,0,0,1-24.27,0,16,16,0,0,1,0-23.23,17.53,17.53,0,0,1,24.27,0,16,16,0,0,1,0,23.23Z" transform="translate(0 -6.59)"/><path class="cls-1" d="M507,22.67,476,20.12,460.9,57,448,18.5l-28.13,4.3-2.58,64.71L388.61,20.8,365.7,22.67,338.82,93.78,326.75,27.34l-26.72,9,.28,19.05-14-1.74,2-20.92L263.8,27.84l-6,43.81Q253.14,61.53,241.6,60.9,223,59.91,223,55.48a1.93,1.93,0,0,1,.11-.62q1-4.35,20.74-4.36c1.62,0,3.36,0,5.22.07l-5.33-32.69q-51.48,4.8-53.93,31.51a56.08,56.08,0,0,0-.32,5.78q0,21.36,17.14,24,17.56,2.88,17.57,6.73a2.43,2.43,0,0,1-.11.75q-1,2.43-10.12,2.43a170.35,170.35,0,0,1-20.19-1.62l11.16,34.24q42.84-1.49,52.9-19.07l22.9,11.22,2.66-30.62,17.31,2.23L301,113.2l40.47-4.67-.2-1.12,21.31,7.72,4.19-13.76,20.56-4.48,5.77,18L416.67,102l-.5,12.56,29.55-6.92-1.25-26.77L461,100.13l18.07-22.35,1.19,34.11,31.56-3ZM373.48,71.86l4.35-15.07,3.71,13.64Z" transform="translate(0 -6.59)"/><path class="cls-1" d="M677.32,35.9a46.59,46.59,0,0,0-65.29,0,43.76,43.76,0,0,0-13.59,32.41v.07a37.42,37.42,0,0,0-12.33-6.73Q595,53.57,595,44.83q0-7.95-7.56-16.49t-21.07-8.53q-14.58,0-36,10L528.33,114q10.67.81,19.81.81,45,0,53.81-19.86A43,43,0,0,0,603.79,90,46.54,46.54,0,0,0,612,100.72a46.56,46.56,0,0,0,65.29,0A43.81,43.81,0,0,0,690.9,68.31,43.83,43.83,0,0,0,677.32,35.9ZM552.65,43.71a33.45,33.45,0,0,1,9-1.73c2.79,0,4.22,1,4.31,2.85V45q0,4.9-12.9,7.65ZM555.75,90l-.6-13.76h2.29q19.37,0,19.37,6.16Q576.71,89,555.75,90Zm98-12.42a17.5,17.5,0,0,1-24.27,0,16,16,0,0,1,0-23.23,17.53,17.53,0,0,1,24.27,0,16,16,0,0,1,0,23.23Z" transform="translate(0 -6.59)"/><polygon points="20.97 14.67 17.02 79.28 26.55 14.67 20.97 14.67"/><path d="M71.63,79.14s8.14-4.92,9.76-10.46l4,2.65A28.2,28.2,0,0,1,71.63,79.14Z" transform="translate(0 -6.59)"/><path d="M172.49,61.71s3.95,24.17-14.4,35.09l-3.72-5.58S168.78,85.18,172.49,61.71Z" transform="translate(0 -6.59)"/><path d="M684.65,61.71s4,24.17-14.4,35.09l-3.72-5.58S680.94,85.18,684.65,61.71Z" transform="translate(0 -6.59)"/><path d="M204.57,34.51s-11.39,10.56-6.51,24.1c1.63-10.85,7-15.5,9.53-17.82C206.42,38.47,204.57,34.51,204.57,34.51Z" transform="translate(0 -6.59)"/><path d="M243.15,107.64S256.83,100.3,255.52,86c-4.31,10.09-10.65,13.24-13.71,14.85C242.35,103.35,243.15,107.64,243.15,107.64Z" transform="translate(0 -6.59)"/><path d="M583.3,106.13S597,98.79,595.66,84.44C591.36,94.54,585,97.69,582,99.3,582.49,101.84,583.3,106.13,583.3,106.13Z" transform="translate(0 -6.59)"/><polygon points="267.55 27.92 263.6 72.66 272.89 29.31 267.55 27.92"/><polygon points="306.13 77.65 306.13 99.73 312.52 98.57 306.13 77.65"/><polygon points="384.44 27.69 409.54 88.69 389.56 25.6 384.44 27.69"/><polygon points="425.35 19.79 425.35 60.69 429.99 19.79 425.35 19.79"/><polygon points="483.91 64.74 483.91 97.41 488.21 96.71 483.91 64.74"/><polygon points="535.97 31.87 535.97 97.41 541.08 29.55 535.97 31.87"/></svg>